/* XPM */
static char * reset_xpm[] = {
"50 50 192 2",
"  	c None",
". 	c #FFE0B2",
"+ 	c #FFE3B8",
"@ 	c #FFDFAF",
"# 	c #FFE1B2",
"$ 	c #FFE3B7",
"% 	c #FFE2B7",
"& 	c #FFE0B1",
"* 	c #FFE2B6",
"= 	c #FFE1B1",
"- 	c #FFDDA9",
"; 	c #FEE2B3",
"> 	c #FBD892",
", 	c #FFE2B9",
"' 	c #FBDC9C",
") 	c #F6D576",
"! 	c #FFDDBE",
"~ 	c #FFD3C7",
"{ 	c #FFC2D4",
"] 	c #FFB5DD",
"^ 	c #FFABE3",
"/ 	c #FFA6E6",
"( 	c #FFA5E6",
"_ 	c #FFA8E5",
": 	c #FFB0E0",
"< 	c #FFBCD9",
"[ 	c #FFCCCD",
"} 	c #FFDAC1",
"| 	c #FFDFBC",
"1 	c #FEE2B2",
"2 	c #F4D774",
"3 	c #F4D673",
"4 	c #FFC7D1",
"5 	c #FFAEE1",
"6 	c #FFA1E8",
"7 	c #FFAFE1",
"8 	c #FFB9DB",
"9 	c #FFBBD9",
"0 	c #FFBBDA",
"a 	c #FFB7DC",
"b 	c #FFB2DF",
"c 	c #FFAAE4",
"d 	c #FFA4E7",
"e 	c #FFB8DB",
"f 	c #FFCDCC",
"g 	c #FFDCBF",
"h 	c #F6D677",
"i 	c #F1D661",
"j 	c #FFE1BA",
"k 	c #FFCBCE",
"l 	c #FFA2E8",
"m 	c #FFC8D0",
"n 	c #FFD9C2",
"o 	c #FFDEBE",
"p 	c #FFE0BB",
"q 	c #FFDBC0",
"r 	c #FFD6C5",
"s 	c #FFA3E7",
"t 	c #F9DC96",
"u 	c #F0D559",
"v 	c #F4D66F",
"w 	c #FFBDD8",
"x 	c #FFA7E6",
"y 	c #FFC6D2",
"z 	c #FFE3B9",
"A 	c #FFDAC0",
"B 	c #FFC1D5",
"C 	c #FFA7E5",
"D 	c #FFDBC1",
"E 	c #FDE1AE",
"F 	c #F0D558",
"G 	c #F1D663",
"H 	c #FFB6DD",
"I 	c #FFB3DF",
"J 	c #FFD5C5",
"K 	c #FFD4C6",
"L 	c #FFA3E8",
"M 	c #FFBADA",
"N 	c #FFE4B7",
"O 	c #FFDEBD",
"P 	c #FFC3D4",
"Q 	c #FFA5E7",
"R 	c #FFACE3",
"S 	c #FFD2C8",
"T 	c #F4D671",
"U 	c #FFBED8",
"V 	c #FFC5D3",
"W 	c #FFA9E4",
"X 	c #FFD6C4",
"Y 	c #FFC2D5",
"Z 	c #FFD1CA",
"` 	c #FFBCD8",
" .	c #FFC4D3",
"..	c #FFD8C2",
"+.	c #FFD8C3",
"@.	c #FED7C4",
"#.	c #FED3C7",
"$.	c #FFD9C1",
"%.	c #FDCCCC",
"&.	c #FEA1E8",
"*.	c #FFA0E9",
"=.	c #FEB2DF",
"-.	c #FFD7C4",
";.	c #FED6C4",
">.	c #FFB9DA",
",.	c #FFB6DC",
"'.	c #FED9C2",
").	c #FFADE2",
"!.	c #FFAEE2",
"~.	c #FFD0CA",
"{.	c #FFCFCB",
"].	c #FECCCD",
"^.	c #FFA1E9",
"/.	c #FFCCCC",
"(.	c #FFC6D1",
"_.	c #FDB7DB",
":.	c #FEBBD9",
"<.	c #FFBFD7",
"[.	c #FFABE4",
"}.	c #FEAFE1",
"|.	c #FED4C7",
"1.	c #FECFCA",
"2.	c #FEC1D5",
"3.	c #FEC9CF",
"4.	c #FED0CA",
"5.	c #FFDFBD",
"6.	c #FFB1E0",
"7.	c #FED8C2",
"8.	c #FED6C3",
"9.	c #FFCACF",
"0.	c #FFCDCB",
"a.	c #FFD7C3",
"b.	c #FFD1C8",
"c.	c #FFA8E4",
"d.	c #FEBDD8",
"e.	c #FFD1C9",
"f.	c #FFACE2",
"g.	c #FEDFBC",
"h.	c #FFBFD6",
"i.	c #FEBADA",
"j.	c #FEC7D1",
"k.	c #FDD7C5",
"l.	c #FEAAE4",
"m.	c #FEABE3",
"n.	c #FED2C8",
"o.	c #FDCDCD",
"p.	c #FEA3E7",
"q.	c #FED4C6",
"r.	c #FEE1BA",
"s.	c #FDC7D1",
"t.	c #FEA5E7",
"u.	c #FECBCE",
"v.	c #F8DEBC",
"w.	c #FEE3B8",
"x.	c #FDC8D0",
"y.	c #FFDDBF",
"z.	c #FFC7D2",
"A.	c #FAE0BB",
"B.	c #FBE1BA",
"C.	c #FCE0AD",
"D.	c #FFC5D2",
"E.	c #FFC9CF",
"F.	c #FFAFE0",
"G.	c #FFC3D3",
"H.	c #FDE2B9",
"I.	c #F9DA90",
"J.	c #FFBDD7",
"K.	c #FFD0C9",
"L.	c #FFE1B9",
"M.	c #FEE2B9",
"N.	c #F6D678",
"O.	c #FFDCBE",
"P.	c #FFE0BA",
"Q.	c #FDE1B0",
"R.	c #F3D670",
"S.	c #F1D660",
"T.	c #F9DB96",
"U.	c #F1D55D",
"V.	c #F4D771",
"W.	c #FDE0AB",
"X.	c #F4D773",
"Y.	c #F0D55A",
"Z.	c #FEE2B4",
"`.	c #F7D989",
" +	c #F1D45A",
".+	c #F1D561",
"++	c #F9DA91",
"@+	c #F1D45C",
"#+	c #F4D66E",
"$+	c #F1D560",
"%+	c #F1D55B",
"&+	c #F4D670",
"                  . + + + + + + + + + + + + + + + + + + + + + + + + + + + @                         ",
"            # $ + + + + + + + + + + + + + + + + + + + + + + + + + + + + + + + % &                   ",
"        & % + + + + + + + + + + + + + + + + + + + + + + + + + + + + + + + + + + + * @               ",
"      = + + + + + + + + + + + + + + + + + + + + + + + + + + + + + + + + + + + + + + $ @             ",
"    & + + + + + + + + + + + + + + + + + + + + + + + + + + + + + + + + + + + + + + + + $ -           ",
"    % + + + + + + + + + + + + + + + + + + + + + + + + + + + + + + + + + + + + + + + + + ; >         ",
"  # + + + + + + + + + + + + + + + + , , , , , , , , + + + + + + + + + + + + + + + + + + + ' )       ",
"  $ + + + + + + + + + + + + , ! ~ { ] ^ / ( ( _ : < [ } | , + + + + + + + + + + + + + + + 1 2 3     ",
"  + + + + + + + + + + + + } 4 5 6 / 7 ] 8 9 0 a b c 6 d e f g + + + + + + + + + + + + + + + h i     ",
". + + + + + + + + + + j k : l 5 m ~ n o p , j | q r f < / s b k j + + + + + + + + + + + + + t u v   ",
"+ + + + + + + + + + | w ( x y o , + + + + + + + + + z p A B C / a D + + + + + + + + + + + + E F G   ",
"+ + + + + + + + + q H s I r z + + + + + + + + + + + + + + , J ] d 7 K , + + + + + + + + + + 1 F u   ",
"+ + + + + + + + g H L M q + + + + + + + + + + + + + + + + + N O P Q R S + + + + + + + + + + 1 F u T ",
"+ + + + + + + p U L 9 O + + + + + + + + + + + + + + + + + + + + p m ( R r + + + + + + + + + 1 F u G ",
"+ + + + + + + k l ] O + + + + + + + + + + + + + + + + + + + + + + , V ( b g + + + + + + + + 1 F u u ",
"+ + + + + + } W R X + + + + + + + + + + + + + + + + + + + + + + + + j < L Y j + + + + + + + 1 F u u ",
"+ + + + + + w ( 4 , + + + + + + + + + + + + + + + + + + + + + + + + + g : _ r + + + + + + + 1 F u u ",
"+ + + + + r ^ 7 | + + + + + + + + + + + + + + + + + + + + + + + + + + + Z L ` j + + + + + + 1 F u u ",
"+ + + + ,  .d k + + + p ..+.@.#.A , + + + + + + + + + + + + + + + + + + O e d $.+ + + + + + 1 F u u ",
"+ + + + ! ] W O + + , %.&.*.*.*.=.O + + + + + + + + + + + + + + + + + + + k ( Y $ + + + + + 1 F u u ",
"+ + + + -.C w , + + + ;.>.,.s l s '.+ + + + + + + + + + + + + + + + + + + $.).!.j + + + + + 1 F u u ",
"+ + + + ~.*.{.+ + + + , j ].d s ^./.+ + + + + + + + + + + + + + + + + + + + H c g + + + + + 1 F u u ",
"+ + + , (.l +.+ + + + + , a / _.l :., + + + + + + + + + + + + + + + + + + N <.W n + + + + + 1 F u u ",
"+ + + j <.[.q + + + + + n ).}.|.W a , + + + + + + + + + + + + + + + + + + N < W ..+ + + + + 1 F u u ",
"+ + + j w : g + + + + + 1.C 2., X q + + + + + + + + + + + + + + + + + + + N ] W q + + + + + 1 F u u ",
"+ + + j B e O + + + + + 3.s 4.+ + + + + + + + + + + + + + + + + + + + + + 5.6.^ j + + + + + 1 F u u ",
"+ + + + g n , + + + + + y l 7.+ + + + + + + + + + + + + + + + + + + + + + X ^ H N + + + + + 1 F u u ",
"+ + + + + + + + + + + + y l q + + + + + + + + + + + + + + + + + + + + + + k Q 4 + + + + + + 1 F u u ",
"+ + + + + + + + + + + + y l 8.+ + + + + + + + + + + + + + + + + + + + + | < s n + + + + + + 1 F u u ",
"+ + + + + + + + + + + + 9.d 0.+ + + + + + + + + + + + + + + + + + + + + a.W H j + + + + + + 1 F u u ",
"+ + + + + + + + + + + + b.c.d.N + + + + + + + + + + + + + + + + + + + j <.Q e.+ + + + + + + 1 F u u ",
"+ + + + + + + + + + + + q 5 f.g.+ + + + + + + + + + + + + + + + + + + 4 / h.p + + + + + + + 1 F u u ",
"+ + + + + + + + + + + + + i.( j., + + + + + + + + + + + + + + + + j V / : $.+ + + + + + + + 1 F u u ",
"+ + + + + + + + + + + + + k.l.m.n.+ + + + + + + + + + + + + + + |  .( ).~ N + + + + + + + + 1 F u u ",
"+ + + + + + + + + + + + + + o.p.!.q.+ + + + + + + + + + + + N a.8 s : K + + + + + + + + + + 1 F u u ",
"+ + + + + + + + + + + + + + r.s.t.c u.j + + + + + + + + , O 4 ^ d ,.n + + + v.w.+ + + + + + 1 F u u ",
"+ + + + + + + + + + + + + + + r.x.l.d 0 J O + + + p y.-.z.).L f. .| + + + A.B.+ + + + + + + C.F u u ",
"@ + + + + + + + + + + + + + + + + n.>.d / a D.E.D.U I ( ^.F.G.+.+ + + + + H.+ + + + + + + + I.F u u ",
"  + + + + + + + + + + + + + + + + + | S 9 ( l d l L f.J.K.A L.+ + + + + M.+ + + + + + + + + N.u u u ",
"  % + + + + + + + + + + + + + + + + + + j 5.7.X X O.P.j + + + + + + + + + + + + + + + + + Q.R.u u S.",
"  & + + + + + + + + + + + + + + + + + + + + + + + + + + + + + + + + + + + + + + + + + + + T.U.u u V.",
"    * + + + + + + + + + + + + + + + + + + + + + + + + + + + + + + + + + + + + + + + + + W.X.Y.u u   ",
"    @ $ + + + + + + + + + + + + + + + + + + + + + + + + + + + + + + + + + + + + + + + Z.`. +u u .+  ",
"      @ $ + + + + + + + + + + + + + + + + + + + + + + + + + + + + + + + + + + + + + Z.++@+u u u #+  ",
"        - ; + + + + + + + + + + + + + + + + + + + + + + + + + + + + + + + + + + + W.`.@+u u u $+    ",
"          > ' 1 + + + + + + + + + + + + + + + + + + + + + + + + + + + + + + + Q.T.X. +u u u %+T     ",
"            ) 2 h t E 1 1 1 1 1 1 1 1 1 1 1 1 1 1 1 1 1 1 1 1 1 1 1 1 1 C.I.N.R.U.Y.u u u %+&+      ",
"              3 i u F F F F F F F F F F F F F F F F F F F F F F F F F F F F u u u u u u $+T         ",
"                  v G u u u u u u u u u u u u u u u u u u u u u u u u u u u u u u u .+#+            ",
"                        T G u u u u u u u u u u u u u u u u u u u u u u u u u S.V.                  "};
